<?xml version="1.0" encoding="utf-8"?>
<!-- Generator: Adobe Illustrator 16.0.0, SVG Export Plug-In . SVG Version: 6.00 Build 0)  -->
<!DOCTYPE svg PUBLIC "-//W3C//DTD SVG 1.1//EN" "http://www.w3.org/Graphics/SVG/1.1/DTD/svg11.dtd">
<svg version="1.1" id="Layer_1" xmlns="http://www.w3.org/2000/svg" xmlns:xlink="http://www.w3.org/1999/xlink" x="0px" y="0px"
	 width="42.836px" height="36.998px" viewBox="0 0 42.836 36.998" enable-background="new 0 0 42.836 36.998" xml:space="preserve">
<g>
	<path fill="#FFFFFF" d="M15.824,25.16l-8.457-8.505v3.386H0V30.28h7.367v3.385L15.824,25.16z"/>
	<path fill="#FFFFFF" d="M10.74,17.211l6.502,6.539l1.402,1.41l-1.402,1.41l-3.508,3.527l11.644,6.808V19.781L10.74,11.223V17.211z"
		/>
	<path fill="#FFFFFF" d="M32.396,3.324L26.727,0L11.574,8.858l5.678,3.323L32.396,3.324z"/>
	<path fill="#FFFFFF" d="M29.729,18.79l-1.637,0.96v17.248l14.744-8.62V11.13L29.729,18.79z"/>
	<path fill="#FFFFFF" d="M41.873,8.858l-6.535-3.77l-15.145,8.858l0.863,0.453l5.67,3.315l5.641-3.293L41.873,8.858z"/>
</g>
</svg>
