<?xml version="1.0" encoding="utf-8"?>
<!-- Generator: Adobe Illustrator 13.0.0, SVG Export Plug-In  -->
<!DOCTYPE svg PUBLIC "-//W3C//DTD SVG 1.1//EN" "http://www.w3.org/Graphics/SVG/1.1/DTD/svg11.dtd" [
	<!ENTITY ns_flows "http://ns.adobe.com/Flows/1.0/">
]>
<svg version="1.1"
	 xmlns="http://www.w3.org/2000/svg" xmlns:xlink="http://www.w3.org/1999/xlink" xmlns:a="http://ns.adobe.com/AdobeSVGViewerExtensions/3.0/"
	 x="0px" y="0px" width="201px" height="44px" viewBox="13 49.73 201 44" enable-background="new 13 49.73 201 44"
	 xml:space="preserve">
<defs>
</defs>
<rect fill="none" width="226.77" height="141.73"/>
<path fill="#2987E3" d="M38.862,59.174v16.182c0,4.547-3.685,8.231-8.228,8.231v9.937c9.497,0,17.196-7.696,17.196-17.194V50.208
	L38.862,59.174z"/>
<path fill="#2987E3" d="M13.436,67.407v26.117l8.966-8.963V68.379c0-4.546,3.688-8.232,8.231-8.232v-9.94
	C21.133,50.207,13.436,57.907,13.436,67.407"/>
<path d="M67.562,55.58c-8.052,0-8.984,6.768-8.984,11.859v8.84c0,5.095,0.932,11.872,8.984,11.872c5.869,0,8.726-3.518,8.726-10.747
	v-1.581h-5.374v1.581c0,3.702-0.569,6.173-3.352,6.173c-2.464,0-3.608-1.965-3.608-6.173v-11.07c0-4.093,0.559-6.171,3.608-6.171
	c3.02,0,3.352,1.975,3.352,6.171v0.472h5.374v-0.472C76.288,58.996,73.516,55.58,67.562,55.58"/>
<polygon points="119.862,87.843 132.986,87.843 132.986,83.577 125.238,83.577 125.238,73.449 130.774,73.449 130.774,69.182 
	125.238,69.182 125.238,60.161 132.986,60.161 132.986,55.893 119.862,55.893 "/>
<path d="M143.247,60.161c2.201,0,3.501,1.434,3.873,4.261h5.482l-0.025-0.342c-0.435-5.482-3.751-8.499-9.33-8.499
	c-5.006,0-8.241,3.12-8.241,7.946c0,3.129,1.252,5.832,3.518,7.602l5.536,4.426c1.475,1.187,3.145,2.54,3.145,5.171
	c0,1.939-0.905,2.851-2.849,2.851c-2.273,0-3.582-1.831-3.905-5.428H135l0.024,0.392c0.38,6.198,3.688,9.61,9.331,9.61
	c5.073,0,8.222-2.956,8.222-7.722c0-3.452-1.551-6.461-4.604-8.93l-5.538-4.428c-0.758-0.611-2.035-1.943-2.035-4.011
	C140.399,61.19,141.41,60.161,143.247,60.161"/>
<polygon points="167.27,69.182 160.463,69.182 160.463,55.893 155.09,55.893 155.09,87.843 160.463,87.843 160.463,73.449 
	167.27,73.449 167.27,87.843 172.645,87.843 172.645,55.893 167.27,55.893 "/>
<path d="M213.296,63.777c-0.354-5.374-3.106-7.884-8.187-7.884h-8.221v31.951h5.375V75.251h2.846c5.305,0,8.227-2.924,8.227-8.227
	C213.336,66.599,213.323,64.172,213.296,63.777 M202.898,70.984h-0.635V60.161h0.635c3.688,0,4.849,0.611,5.033,3.789
	c0.021,0.331,0.027,2.692,0.027,3.075C207.959,70.095,206.824,70.984,202.898,70.984"/>
<path d="M117.053,67.024c0-0.426-0.013-2.852-0.039-3.248c-0.355-5.374-3.103-7.884-8.186-7.884h-8.222v31.951h5.374V75.251h2.263
	l3.995,12.592h5.637l-4.341-13.688C115.821,72.859,117.053,70.445,117.053,67.024 M106.616,70.984h-0.636V60.161h0.636
	c3.686,0,4.849,0.611,5.033,3.789c0.021,0.331,0.028,2.692,0.028,3.075C111.677,70.095,110.542,70.984,106.616,70.984"/>
<path d="M91.425,68.205v10.813c0,0.601-0.023,1.118-0.069,1.552c-0.044,0.431-0.131,0.865-0.267,1.299
	c-0.133,0.435-0.318,0.785-0.554,1.054c-0.239,0.268-0.552,0.484-0.949,0.651c-0.396,0.166-0.874,0.249-1.436,0.249
	c-0.561,0-1.045-0.083-1.445-0.249c-0.404-0.167-0.719-0.384-0.949-0.651c-0.23-0.269-0.412-0.619-0.546-1.054
	c-0.134-0.434-0.225-0.868-0.267-1.299c-0.044-0.434-0.069-0.951-0.069-1.552V64.602c0-0.766,0.039-1.405,0.117-1.916
	c0.076-0.511,0.223-0.992,0.44-1.445c0.216-0.452,0.552-0.793,1.006-1.016c0.451-0.222,1.024-0.335,1.713-0.335
	s1.256,0.113,1.704,0.335c0.447,0.222,0.783,0.563,1.004,1.016c0.224,0.453,0.375,0.934,0.45,1.445
	c0.057,0.387,0.087,0.871,0.103,1.402l4.57-4.566c-0.244-0.459-0.506-0.896-0.815-1.276c-1.423-1.75-3.761-2.623-7.016-2.623
	c-1.671,0-3.103,0.228-4.289,0.68c-1.188,0.453-2.134,1.131-2.844,2.037c-0.708,0.908-1.222,1.979-1.542,3.217
	c-0.318,1.237-0.478,2.701-0.478,4.385v11.717c0,3.423,0.709,6.017,2.125,7.79c1.417,1.776,3.758,2.663,7.027,2.663
	c1.66,0,3.083-0.235,4.269-0.709c1.187-0.471,2.136-1.169,2.843-2.096c0.71-0.922,1.227-2.015,1.552-3.274
	c0.324-1.256,0.486-2.712,0.486-4.374V65.941c0-1.219-0.124-2.295-0.309-3.301L91.425,68.205z"/>
<path d="M184.796,55.62c-1.657,0-3.083,0.237-4.269,0.709c-1.187,0.473-2.137,1.17-2.844,2.096
	c-0.707,0.924-1.225,2.016-1.551,3.275c-0.323,1.256-0.484,2.712-0.484,4.374v11.717c0,1.219,0.121,2.294,0.309,3.3l5.565-5.565
	V64.715c0-0.601,0.021-1.117,0.07-1.553c0.042-0.431,0.129-0.865,0.265-1.298c0.136-0.436,0.318-0.786,0.554-1.055
	c0.238-0.269,0.556-0.485,0.951-0.65c0.395-0.167,0.872-0.25,1.434-0.25c0.564,0,1.045,0.083,1.445,0.25
	c0.403,0.165,0.718,0.381,0.948,0.65c0.229,0.269,0.412,0.619,0.546,1.055c0.134,0.433,0.225,0.867,0.268,1.298
	c0.044,0.436,0.069,0.953,0.069,1.553V79.13c0,0.767-0.04,1.403-0.116,1.917c-0.077,0.511-0.225,0.988-0.441,1.444
	c-0.215,0.452-0.552,0.792-1.004,1.013c-0.452,0.225-1.026,0.337-1.715,0.337c-0.689,0-1.256-0.112-1.703-0.337
	c-0.448-0.221-0.781-0.561-1.006-1.013c-0.223-0.456-0.374-0.934-0.45-1.444c-0.057-0.387-0.087-0.872-0.102-1.403l-4.568,4.566
	c0.243,0.459,0.503,0.899,0.813,1.277c1.424,1.751,3.762,2.623,7.017,2.623c1.673,0,3.103-0.228,4.291-0.681
	c1.186-0.455,2.133-1.132,2.843-2.037c0.707-0.908,1.221-1.979,1.541-3.217c0.318-1.235,0.478-2.702,0.478-4.385V66.075
	c0-3.422-0.709-6.02-2.126-7.792C190.406,56.507,188.064,55.62,184.796,55.62"/>
</svg>
