<svg xmlns="http://www.w3.org/2000/svg" xmlns:xlink="http://www.w3.org/1999/xlink" id="Layer_1" x="0px" y="0px" width="197.789px" height="40.029px" viewBox="0 0 197.789 40.029" xml:space="preserve"> <g> <path fill="#2A87E4" d="M23.499,23.239c0,4.201-3.405,7.607-7.606,7.607v9.182c8.778,0,15.895-7.111,15.895-15.891V-0.001 l-8.289,8.288V23.239z"></path> <path fill="#2A87E4" d="M8.285,16.793c0-4.201,3.406-7.607,7.607-7.607v-9.187C7.114-0.001,0,7.115,0,15.895V40.03l8.285-8.285 V16.793z"></path> </g> <g> <path d="M160.589,13.661c0-3.483,0.977-4.841,3.484-4.841s3.484,1.357,3.484,4.841v12.873c0,3.408-0.944,4.676-3.484,4.676 c-2.541,0-3.484-1.268-3.484-4.676v-2.139l-4.797,4.795l0.058,0.244c0.944,4.139,3.635,6.152,8.224,6.152 c5.803,0,8.625-3.307,8.625-10.113v-10.75c0-6.821-2.902-10.281-8.625-10.281c-5.803,0-8.625,3.362-8.625,10.281v11.524 l5.141-5.139V13.661L160.589,13.661z"></path> <path d="M180.191,21.526h2.725c5.071,0,7.864-2.794,7.864-7.865c0-5.919-2.646-8.921-7.864-8.921h-7.862V35.29h5.139 L180.191,21.526L180.191,21.526z M180.191,8.821h0.607c3.893,0,4.842,0.951,4.842,4.842c0,2.936-1.086,3.783-4.842,3.783h-0.607 V8.821z"></path> <path d="M141.313,21.526h6.508V35.29h5.14V4.74h-5.14v12.706h-6.508V4.74h-5.14V35.29h5.14V21.526L141.313,21.526z"></path> <path d="M195.126,6.122l0.68,2.751h0.511l0.681-2.751v2.751h0.791V4.749h-1.199l-0.53,2.246l-0.515-2.246h-1.199v4.125h0.783V6.122 H195.126z"></path> <path d="M126.501,31.21c-2.17,0-3.424-1.744-3.732-5.188h-5.212l0.022,0.371c0.361,5.93,3.528,9.193,8.922,9.193 c4.853,0,7.865-2.828,7.865-7.383c0-3.305-1.482-6.178-4.406-8.542l-5.293-4.236c-0.729-0.58-1.949-1.854-1.949-3.832 c0-1.789,0.969-2.773,2.726-2.773c2.104,0,3.347,1.373,3.704,4.076h5.244l-0.027-0.329c-0.414-5.239-3.584-8.126-8.921-8.126 c-4.786,0-7.88,2.982-7.88,7.6c0,2.991,1.195,5.575,3.361,7.27l5.294,4.234c1.409,1.137,3.008,2.428,3.008,4.941 C129.227,30.344,128.359,31.21,126.501,31.21z"></path> <path d="M192.231,8.874h0.843V5.513h0.813V4.749h-2.464v0.764h0.808V8.874L192.231,8.874z"></path> <path d="M56.591,35.587c5.613,0,8.343-3.359,8.343-10.275v-1.514h-5.139v1.514c0,3.541-0.545,5.898-3.204,5.898 c-2.356,0-3.452-1.875-3.452-5.898V14.723c0-3.915,0.534-5.902,3.452-5.902c2.888,0,3.204,1.889,3.204,5.902v0.45h5.139v-0.45 c0-7.015-2.65-10.281-8.343-10.281c-7.7,0-8.592,6.472-8.592,11.339v8.455C47.999,29.106,48.891,35.587,56.591,35.587z"></path> <path d="M75.531,35.587c5.801,0,8.624-3.359,8.624-10.275v-11.53l-5.14,5.139v7.446c0,3.488-0.978,4.844-3.484,4.844 c-2.508,0-3.487-1.354-3.487-4.844v-12.87c0-3.41,0.945-4.676,3.487-4.676c2.54,0,3.484,1.266,3.484,4.676v2.136l4.793-4.793 l-0.057-0.243c-0.944-4.142-3.631-6.154-8.221-6.154c-5.805,0-8.627,3.309-8.627,10.115v10.754 C66.904,32.13,69.807,35.587,75.531,35.587z"></path> <path d="M116.912,31.21H109.5v-9.684h5.295v-4.081H109.5V8.821h7.412V4.74H104.36V35.29h12.552V31.21z"></path> <path d="M91.55,8.821h0.606c3.396,0,4.843,1.289,4.843,4.312c0,2.674-1.157,3.987-3.756,4.257l-0.547,0.057l5.513,17.845h5.156 l-4.827-15.015c2.327-1.052,3.6-3.567,3.6-7.144c0-5.727-3.173-8.393-9.981-8.393h-5.745V35.29h5.139L91.55,8.821L91.55,8.821z"></path> </g> </svg>