<?xml version="1.0" encoding="utf-8"?>
<!-- Generator: Adobe Illustrator 16.0.0, SVG Export Plug-In . SVG Version: 6.00 Build 0)  -->
<!DOCTYPE svg PUBLIC "-//W3C//DTD SVG 1.1//EN" "http://www.w3.org/Graphics/SVG/1.1/DTD/svg11.dtd">
<svg version="1.1" id="Layer_1" xmlns="http://www.w3.org/2000/svg" xmlns:xlink="http://www.w3.org/1999/xlink" x="0px" y="0px"
	 width="57.007px" height="50.77px" viewBox="0 0 57.007 50.77" enable-background="new 0 0 57.007 50.77" xml:space="preserve">
<g>
	<path fill="#FFFFFF" d="M14.622,9.63l-1.98,0.008c-1.854,0.014-4.338,0.399-6.358,2.017s-3.575,4.465-3.575,9.402v4.343v4.343
		c0,4.923,1.556,7.764,3.575,9.377c2.02,1.612,4.503,1.999,6.358,2.013l0.228,0.008l6.364,0.008l6.136-15.763L19.233,9.622
		L14.622,9.63z M20.467,22.762h-5.383v-2.42c0-1.953-0.135-4.488-2.209-4.488c-2.06,0-2.376,2.259-2.376,3.877v11.324
		c0,1.632,0.3,3.861,2.376,3.861c1.999,0,2.254-2.463,2.24-4.503v-2.696h5.353l-0.015,2.215c-0.075,4.723-1.699,9.08-7.577,9.08
		c-6.014,0-7.849-4.212-7.849-9.27v-8.686c0-5.188,1.82-9.299,7.849-9.299c5.607,0,7.592,3.688,7.592,8.745V22.762z"/>
	<path fill="#FFFFFF" d="M44.137,41.14l0.228-0.008c1.854-0.014,4.338-0.399,6.357-2.013s3.575-4.454,3.575-9.377v-4.343v-4.343
		c0-4.937-1.555-7.785-3.575-9.402c-2.019-1.616-4.502-2.003-6.358-2.017l-1.98-0.008l-4.61-0.008l-6.136,15.763l6.136,15.764
		L44.137,41.14z M42.813,27.483l-1.699-1.399c-2.135-1.748-4.345-3.672-4.345-7.446c0-4.3,3.082-6.909,7.638-6.909
		c3.85,0,6.901,3.047,6.901,6.763c0,0.081-0.013,0.198-0.015,0.549h-5.618c0.003-0.077,0.009-0.145,0.009-0.229
		c0-1.238-0.285-3.017-1.729-3.017c-1.293,0-1.805,1.195-1.805,2.304c0,1.879,1.023,3.045,2.315,4.095
		c0.692,0.568,1.369,1.107,2,1.661c2.782,2.404,4.871,4.868,4.871,8.92c0,3.76-3.188,6.267-6.96,6.267
		c-5.133,0-7.362-3.854-7.612-7.916h5.561c0.088,1.963,0.485,3.85,2.066,3.85c1.293,0,1.624-0.903,1.624-2.012
		C46.016,30.777,44.392,28.824,42.813,27.483"/>
	<path fill="#FFFFFF" d="M28.513,20.65l3.666-11.025h-1.459V5.388h-4.431v4.237h-1.44L28.513,20.65z"/>
	<path fill="#FFFFFF" d="M28.493,30.119l-3.666,11.025h1.46v4.237h4.431v-4.237h1.439L28.493,30.119z"/>
	<path fill="#FFFFFF" d="M13.506,41.862c-1.639,0.038-3.426-0.058-5.189-0.688c-1.751-0.607-3.438-1.772-4.564-3.452
		c-1.149-1.665-1.74-3.731-1.946-5.839c-0.112-1.055-0.108-2.128-0.103-3.214c0.003-1.083,0.006-2.171,0.008-3.259
		c-0.002-1.088-0.004-2.176-0.006-3.26c-0.006-1.086-0.011-2.156,0.099-3.214c0.206-2.106,0.785-4.176,1.927-5.847
		c1.115-1.687,2.795-2.86,4.543-3.478c1.76-0.638,3.547-0.742,5.187-0.704c6.576-0.002,10.96-0.003,10.96-0.003l0-0.17
		c0,0-0.273-0.034-0.788-0.098c-0.514-0.066-1.267-0.16-2.225-0.24c-0.959-0.088-2.124-0.196-3.459-0.32
		c-1.335-0.137-2.842-0.205-4.486-0.326c-0.792-0.065-1.739-0.096-2.699-0.012C9.806,7.822,8.81,7.999,7.807,8.32
		c-2.006,0.617-4.016,1.974-5.356,3.913c-1.373,1.921-2.061,4.252-2.292,6.54c-0.129,1.143-0.133,2.325-0.137,3.378
		C0.014,23.235,0.007,24.323,0,25.411c0.008,1.088,0.015,2.176,0.022,3.259c0.004,1.062,0.007,2.211,0.14,3.382
		c0.232,2.289,0.938,4.618,2.318,6.534c1.348,1.927,3.367,3.272,5.377,3.88c1.003,0.316,2,0.489,2.957,0.566
		c0.959,0.083,1.899,0.047,2.694-0.018c1.645-0.121,3.151-0.188,4.487-0.326c1.335-0.122,2.5-0.23,3.459-0.318
		c0.959-0.079,1.712-0.173,2.226-0.238c0.514-0.063,0.788-0.097,0.788-0.097v-0.17C24.468,41.865,20.083,41.863,13.506,41.862"/>
	<path fill="#FFFFFF" d="M56.985,22.151c-0.004-1.052-0.008-2.236-0.138-3.379c-0.231-2.287-0.92-4.617-2.292-6.54
		c-1.34-1.938-3.349-3.296-5.355-3.913c-1.003-0.32-2-0.497-2.958-0.579c-0.958-0.084-1.907-0.054-2.698,0.012
		c-1.644,0.121-3.151,0.19-4.486,0.326c-1.336,0.124-2.5,0.232-3.458,0.321c-0.959,0.08-1.713,0.173-2.226,0.239
		c-0.514,0.063-0.788,0.098-0.788,0.098l0.001,0.17c0,0,4.384,0.001,10.961,0.003c1.64-0.038,3.425,0.066,5.186,0.703
		c1.748,0.618,3.428,1.791,4.543,3.479c1.143,1.67,1.722,3.739,1.927,5.846c0.11,1.059,0.105,2.128,0.1,3.214
		c-0.002,1.084-0.004,2.172-0.007,3.26c0.002,1.088,0.005,2.176,0.007,3.259c0.005,1.086,0.009,2.159-0.102,3.214
		c-0.207,2.107-0.796,4.174-1.946,5.839c-1.128,1.68-2.812,2.846-4.565,3.452c-1.763,0.629-3.55,0.726-5.189,0.688
		c-6.576,0.001-10.96,0.002-10.96,0.002l0,0.169c0,0,0.273,0.035,0.787,0.098c0.514,0.066,1.268,0.159,2.226,0.238
		c0.959,0.089,2.124,0.196,3.459,0.319c1.335,0.138,2.842,0.204,4.486,0.325c0.795,0.065,1.736,0.101,2.694,0.018
		c0.958-0.077,1.955-0.25,2.957-0.566c2.011-0.607,4.029-1.952,5.377-3.881c1.38-1.916,2.085-4.244,2.318-6.533
		c0.133-1.171,0.135-2.32,0.14-3.382c0.007-1.083,0.015-2.171,0.023-3.259C56.999,24.323,56.992,23.235,56.985,22.151"/>
</g>
</svg>
