<?xml version="1.0" encoding="utf-8"?>
<!-- Generator: Adobe Illustrator 16.0.0, SVG Export Plug-In . SVG Version: 6.00 Build 0)  -->
<!DOCTYPE svg PUBLIC "-//W3C//DTD SVG 1.1//EN" "http://www.w3.org/Graphics/SVG/1.1/DTD/svg11.dtd">
<svg version="1.1" id="Layer_1" xmlns="http://www.w3.org/2000/svg" xmlns:xlink="http://www.w3.org/1999/xlink" x="0px" y="0px"
	 width="57.007px" height="39.994px" viewBox="0 0 57.007 39.994" enable-background="new 0 0 57.007 39.994" xml:space="preserve">
<g>
	<g>
		<path fill="#444444" d="M14.622,4.243L12.643,4.25c-1.855,0.014-4.339,0.4-6.358,2.017c-2.02,1.617-3.575,4.465-3.575,9.402v8.686
			c0,4.922,1.556,7.764,3.575,9.377s4.503,1.999,6.358,2.013l0.227,0.008l6.364,0.009l6.136-15.764L19.233,4.235L14.622,4.243z
			 M20.467,17.374h-5.383v-2.42c0-1.953-0.135-4.488-2.209-4.488c-2.06,0-2.376,2.258-2.376,3.877v11.324
			c0,1.631,0.3,3.861,2.376,3.861c1.998,0,2.255-2.463,2.24-4.503v-2.696h5.352l-0.015,2.215c-0.075,4.723-1.699,9.08-7.577,9.08
			c-6.014,0-7.849-4.213-7.849-9.27v-8.686c0-5.188,1.819-9.299,7.849-9.299c5.607,0,7.592,3.688,7.592,8.745V17.374z
			 M44.138,35.752l0.228-0.008c1.854-0.014,4.338-0.399,6.357-2.013s3.575-4.453,3.575-9.377v-8.686
			c0-4.937-1.556-7.784-3.576-9.401C48.703,4.65,46.22,4.263,44.364,4.25l-1.98-0.008l-4.61-0.008l-6.136,15.763l6.136,15.763
			L44.138,35.752z M42.814,22.096l-1.699-1.399c-2.135-1.749-4.345-3.672-4.345-7.446c0-4.3,3.081-6.909,7.638-6.909
			c3.85,0,6.901,3.047,6.901,6.763c0,0.081-0.013,0.198-0.015,0.549h-5.618c0.003-0.077,0.009-0.145,0.009-0.228
			c0-1.238-0.285-3.017-1.729-3.017c-1.293,0-1.805,1.195-1.805,2.303c0,1.879,1.023,3.045,2.315,4.095
			c0.692,0.568,1.368,1.107,2,1.661c2.781,2.405,4.871,4.868,4.871,8.919c0,3.76-3.188,6.268-6.961,6.268
			c-5.133,0-7.362-3.854-7.612-7.916h5.561c0.089,1.963,0.486,3.85,2.066,3.85c1.293,0,1.624-0.904,1.624-2.012
			C46.017,25.39,44.393,23.437,42.814,22.096z M32.179,4.238h-1.46V0h-4.431v4.238h-1.44l3.666,11.025L32.179,4.238z M24.828,35.757
			h1.46v4.237h4.431v-4.237h1.439l-3.664-11.025L24.828,35.757z M8.317,35.786c-1.751-0.606-3.438-1.771-4.564-3.451
			c-1.149-1.664-1.739-3.732-1.946-5.839c-0.111-1.054-0.107-2.128-0.103-3.214c0.003-1.084,0.006-2.171,0.008-3.259
			c-0.002-1.088-0.004-2.176-0.007-3.259c-0.005-1.086-0.01-2.157,0.1-3.214C2.01,11.443,2.589,9.374,3.73,7.703
			c1.115-1.687,2.796-2.86,4.544-3.478c1.76-0.638,3.547-0.743,5.187-0.704c6.576-0.001,10.96-0.002,10.96-0.002l0.001-0.17
			c0,0-0.273-0.034-0.787-0.097c-0.514-0.067-1.268-0.16-2.226-0.24C20.45,2.922,19.285,2.814,17.95,2.69
			c-1.336-0.136-2.843-0.205-4.486-0.326c-0.792-0.066-1.739-0.096-2.699-0.011C9.807,2.435,8.811,2.611,7.808,2.932
			C5.801,3.55,3.792,4.906,2.451,6.846c-1.372,1.921-2.061,4.252-2.293,6.54c-0.129,1.143-0.133,2.326-0.137,3.379
			C0.015,17.848,0.008,18.936,0,20.023c0.009,1.088,0.016,2.175,0.023,3.259c0.004,1.062,0.007,2.211,0.14,3.382
			c0.232,2.289,0.938,4.618,2.318,6.534c1.348,1.927,3.366,3.272,5.377,3.879c1.003,0.317,1.999,0.49,2.957,0.567
			c0.959,0.083,1.899,0.048,2.694-0.018c1.645-0.121,3.15-0.188,4.486-0.326c1.336-0.122,2.5-0.229,3.459-0.318
			c0.959-0.079,1.712-0.173,2.226-0.238c0.514-0.063,0.788-0.097,0.788-0.097v-0.17c0,0-4.385-0.002-10.962-0.003
			C11.867,36.513,10.08,36.417,8.317,35.786z M56.985,16.764c-0.004-1.053-0.008-2.237-0.138-3.379
			c-0.231-2.288-0.92-4.618-2.292-6.54c-1.341-1.938-3.35-3.296-5.355-3.913c-1.004-0.321-2-0.498-2.959-0.579
			c-0.958-0.084-1.907-0.054-2.698,0.012c-1.644,0.121-3.15,0.19-4.485,0.326c-1.336,0.124-2.5,0.232-3.459,0.321
			c-0.959,0.081-1.713,0.173-2.226,0.24c-0.514,0.063-0.788,0.097-0.788,0.097v0.17c0,0,4.385,0.001,10.962,0.003
			c1.64-0.039,3.425,0.065,5.186,0.704c1.748,0.618,3.428,1.791,4.543,3.479c1.143,1.669,1.722,3.739,1.927,5.846
			c0.11,1.058,0.104,2.128,0.1,3.214c-0.002,1.083-0.004,2.171-0.007,3.259c0.003,1.088,0.005,2.176,0.008,3.259
			c0.005,1.086,0.009,2.16-0.103,3.215c-0.207,2.105-0.796,4.174-1.946,5.838c-1.128,1.68-2.812,2.846-4.564,3.451
			c-1.763,0.63-3.55,0.727-5.189,0.689c-6.576,0.001-10.961,0.002-10.961,0.002v0.17c0,0,0.273,0.034,0.787,0.097
			c0.514,0.066,1.268,0.159,2.226,0.237c0.959,0.09,2.124,0.197,3.459,0.32c1.335,0.138,2.843,0.204,4.486,0.325
			c0.795,0.065,1.736,0.101,2.694,0.018c0.958-0.077,1.955-0.25,2.957-0.567c2.011-0.606,4.028-1.951,5.377-3.879
			c1.38-1.917,2.085-4.246,2.318-6.533c0.133-1.172,0.136-2.321,0.141-3.383c0.007-1.083,0.014-2.171,0.022-3.259
			C56.999,18.936,56.992,17.848,56.985,16.764z"/>
	</g>
</g>
</svg>
