<?xml version="1.0" encoding="utf-8"?>
<!-- Generator: Adobe Illustrator 16.0.0, SVG Export Plug-In . SVG Version: 6.00 Build 0)  -->
<!DOCTYPE svg PUBLIC "-//W3C//DTD SVG 1.1//EN" "http://www.w3.org/Graphics/SVG/1.1/DTD/svg11.dtd">
<svg version="1.1" id="Layer_1" xmlns="http://www.w3.org/2000/svg" xmlns:xlink="http://www.w3.org/1999/xlink" x="0px" y="0px"
	 width="74.43px" height="50.77px" viewBox="0 0 74.43 50.77" enable-background="new 0 0 74.43 50.77" xml:space="preserve">
<path fill="#FFFFFF" d="M73.833,0.152l-0.264,1.116l-0.256-1.116h-0.596v2.049h0.389V0.834l0.338,1.367h0.254l0.337-1.367v1.367
	h0.395V0.152H73.833z"/>
<path fill="#FFFFFF" d="M13.68,15.477c2.883,0,4.286-1.671,4.286-5.108V4.642l-2.554,2.553v3.7c0,1.732-0.486,2.406-1.732,2.406
	s-1.731-0.674-1.731-2.406V4.499c0-1.693,0.469-2.323,1.731-2.323c1.264,0,1.732,0.63,1.732,2.323v1.062l2.382-2.382l-0.028-0.122
	C17.297,1,15.961,0,13.68,0c-2.883,0-4.286,1.644-4.286,5.025v5.343C9.394,13.757,10.836,15.477,13.68,15.477"/>
<path fill="#FFFFFF" d="M71.267,0.532h0.401v1.67h0.419v-1.67h0.403v-0.38h-1.224V0.532z"/>
<path fill="#FFFFFF" d="M4.27,15.477c2.79,0,4.146-1.671,4.146-5.108V9.617H5.861v0.751c0,1.76-0.271,2.933-1.592,2.933
	c-1.172,0-1.715-0.931-1.715-2.933V5.107c0-1.944,0.265-2.932,1.715-2.932c1.435,0,1.592,0.938,1.592,2.932v0.226h2.554V5.107
	C8.415,1.622,7.098,0,4.27,0C0.442,0,0,3.215,0,5.633v4.201C0,12.256,0.442,15.477,4.27,15.477"/>
<path fill="#FFFFFF" d="M21.641,2.176h0.301c1.688,0,2.406,0.641,2.406,2.143c0,1.329-0.575,1.981-1.866,2.115l-0.272,0.027
	l2.74,8.868h2.562l-2.398-7.461c1.155-0.523,1.788-1.773,1.788-3.55c0-2.845-1.576-4.171-4.96-4.171h-2.855v15.182h2.555V2.176z"/>
<path fill="#FFFFFF" d="M46.367,8.489h3.233v6.84h2.554V0.148h-2.554v6.312h-3.233V0.148h-2.554v15.181h2.554V8.489z"/>
<path fill="#FFFFFF" d="M39.008,13.301c-1.079,0-1.701-0.867-1.855-2.578h-2.59l0.012,0.187c0.18,2.946,1.754,4.567,4.434,4.567
	c2.41,0,3.908-1.405,3.908-3.669c0-1.642-0.737-3.069-2.189-4.245l-2.631-2.104c-0.362-0.29-0.968-0.922-0.968-1.905
	c0-0.889,0.48-1.378,1.354-1.378c1.045,0,1.662,0.682,1.84,2.025h2.606l-0.013-0.163C42.709,1.434,41.134,0,38.481,0
	c-2.379,0-3.916,1.482-3.916,3.775c0,1.487,0.595,2.771,1.671,3.612l2.631,2.103c0.7,0.566,1.494,1.207,1.494,2.457
	C40.361,12.871,39.931,13.301,39.008,13.301"/>
<path fill="#FFFFFF" d="M34.242,13.301H30.56V8.489h2.631V6.461H30.56V2.176h3.683V0.148h-6.237v15.181h6.237V13.301z"/>
<path fill="#FFFFFF" d="M57.677,0c-2.883,0-4.286,1.671-4.286,5.107v5.728l2.554-2.554V4.582c0-1.732,0.486-2.406,1.732-2.406
	s1.731,0.674,1.731,2.406v6.395c0,1.694-0.469,2.324-1.731,2.324s-1.732-0.63-1.732-2.324V9.915l-2.383,2.382l0.029,0.121
	c0.469,2.058,1.805,3.059,4.086,3.059c2.883,0,4.286-1.644,4.286-5.025V5.107C61.963,1.719,60.521,0,57.677,0"/>
<path fill="#FFFFFF" d="M67.039,0.148h-3.906v15.18h2.554V8.489h1.353c2.521,0,3.908-1.389,3.908-3.908
	C70.947,1.64,69.633,0.148,67.039,0.148 M65.987,6.461h-0.301V2.176h0.301c1.935,0,2.406,0.472,2.406,2.405
	C68.394,6.04,67.854,6.461,65.987,6.461"/>
<path fill="#FFFFFF" d="M12.259,32.954h2.426l-2.659-7.851l2.699-7.245h-2.445l-2.004,5.506l-2.002-5.506H6.12H5.828H0v15.096h5.851
	h0.27h2.175l1.98-5.994L12.259,32.954z M6.12,32.168v-1.113H2.425V26.09h2.639v-1.896H2.425v-4.438H6.12v-1.11l2.406,6.489
	L6.12,32.168z"/>
<path fill="#FFFFFF" d="M19.102,17.857h-3.853v15.096h2.425v-6.862h1.428c2.483,0,3.852-1.369,3.852-3.853
	C22.953,19.332,21.657,17.857,19.102,17.857 M18.045,24.193h-0.371v-4.438h0.371c1.995,0,2.483,0.487,2.483,2.482
	C20.528,23.911,19.762,24.193,18.045,24.193"/>
<path fill="#FFFFFF" d="M31.2,21.975c0-2.808-1.561-4.117-4.908-4.117h-2.796v15.096h2.425v-6.862h1.312l2.129,6.862h2.425
	l-2.396-7.456C30.559,25,31.2,23.756,31.2,21.975 M26.292,24.193h-0.371v-4.438h0.371c1.717,0,2.483,0.685,2.483,2.219
	S28.009,24.193,26.292,24.193"/>
<path fill="#FFFFFF" d="M38.415,19.756v-1.898h-6.12v15.097h6.12v-1.898h-3.694v-4.965h2.639v-1.897h-2.639v-4.438H38.415z"/>
<path fill="#FFFFFF" d="M46.919,29.488c0-1.624-0.729-3.039-2.17-4.205l-2.64-2.111c-0.372-0.297-0.997-0.948-0.997-1.964
	c0-0.938,0.507-1.452,1.427-1.452c1.191,0,1.849,0.839,1.955,2.493l0.013,0.188l2.422-0.607l-0.01-0.131
	c-0.204-2.571-1.76-3.989-4.38-3.989c-2.345,0-3.86,1.46-3.86,3.721c0,1.47,0.587,2.739,1.651,3.57l2.639,2.111
	c0.715,0.576,1.525,1.231,1.525,2.518c0,0.974-0.453,1.426-1.427,1.426c-1.2,0-1.858-1.014-1.955-3.016l-0.009-0.191l-2.424,0.605
	l0.008,0.13c0.177,2.915,1.731,4.52,4.38,4.52C45.443,33.103,46.919,31.718,46.919,29.488"/>
<path fill="#FFFFFF" d="M55.669,29.488c0-1.624-0.729-3.039-2.17-4.205l-2.64-2.111c-0.372-0.297-0.997-0.948-0.997-1.964
	c0-0.938,0.507-1.452,1.427-1.452c1.191,0,1.85,0.839,1.955,2.493l0.014,0.188l2.422-0.607l-0.011-0.131
	c-0.204-2.571-1.76-3.989-4.38-3.989c-2.345,0-3.859,1.46-3.859,3.721c0,1.47,0.587,2.739,1.65,3.57l2.64,2.111
	c0.715,0.576,1.524,1.231,1.524,2.518c0,0.974-0.453,1.426-1.427,1.426c-1.2,0-1.858-1.014-1.955-3.016l-0.009-0.191l-2.423,0.605
	l0.007,0.13c0.177,2.915,1.731,4.52,4.38,4.52C54.193,33.103,55.669,31.718,55.669,29.488"/>
<path fill="#FFFFFF" d="M3.86,37.423c1.19,0,1.848,0.84,1.955,2.493l0.012,0.187l2.423-0.605l-0.011-0.131
	c-0.203-2.573-1.759-3.989-4.379-3.989c-2.345,0-3.86,1.46-3.86,3.72c0,1.471,0.588,2.739,1.651,3.571l2.639,2.11
	c0.714,0.577,1.525,1.231,1.525,2.519c0,0.973-0.453,1.427-1.427,1.427c-1.201,0-1.858-1.016-1.955-3.019l-0.01-0.189L0.001,46.12
	l0.007,0.13c0.178,2.914,1.732,4.52,4.381,4.52c2.376,0,3.852-1.385,3.852-3.614c0-1.624-0.729-3.038-2.171-4.205l-2.639-2.111
	c-0.373-0.297-0.997-0.948-0.997-1.965C2.434,37.938,2.94,37.423,3.86,37.423"/>
<path fill="#FFFFFF" d="M14.937,41.86h-3.383v-6.335H9.13V50.62h2.424v-6.861h3.383v6.861h2.424V35.525h-2.424V41.86z"/>
<path fill="#FFFFFF" d="M18.92,50.62h2.425V35.525H18.92V50.62z"/>
<path fill="#FFFFFF" d="M26.805,35.525h-3.853V50.62h2.425v-6.861h1.428c2.483,0,3.852-1.369,3.852-3.854
	C30.656,36.999,29.36,35.525,26.805,35.525 M25.748,41.86h-0.371v-4.438h0.371c1.995,0,2.483,0.488,2.483,2.482
	C28.231,41.579,27.465,41.86,25.748,41.86"/>
<path fill="#FFFFFF" d="M35.052,35.525h-3.853V50.62h2.426v-6.861h1.427c2.483,0,3.852-1.369,3.852-3.854
	C38.903,36.999,37.607,35.525,35.052,35.525 M33.995,41.86h-0.37v-4.438h0.37c1.995,0,2.483,0.488,2.483,2.482
	C36.479,41.579,35.713,41.86,33.995,41.86"/>
<path fill="#FFFFFF" d="M39.545,50.62h2.425V35.525h-2.425V50.62z"/>
<path fill="#FFFFFF" d="M48.857,44.017l-3.433-8.49h-1.847V50.62h2.424v-9.146l3.515,9.146h1.766V35.526h-2.425V44.017z"/>
<path fill="#FFFFFF" d="M56.7,44.814h2.112v0.371c0,2.512-0.567,3.538-1.956,3.538c-1.719,0-1.955-1.701-1.955-3.538v-4.752
	c0-2.111,0.609-3.011,2.038-3.011c1.624,0,1.749,1.248,1.749,3.011v0.157h2.424v-0.157c0-3.402-1.365-5.057-4.173-5.057
	c-2.961,0-4.463,1.879-4.463,5.585v3.745c0,2.997,0.521,6.062,4.38,6.062c0.926,0,1.645-0.497,2.096-1.441l0.431,1.292h1.854v-7.688
	H56.7V44.814z"/>
</svg>
