<?xml version="1.0" encoding="utf-8"?>
<!-- Generator: Adobe Illustrator 16.0.0, SVG Export Plug-In . SVG Version: 6.00 Build 0)  -->
<!DOCTYPE svg PUBLIC "-//W3C//DTD SVG 1.1//EN" "http://www.w3.org/Graphics/SVG/1.1/DTD/svg11.dtd">
<svg version="1.1" id="Layer_1" xmlns="http://www.w3.org/2000/svg" xmlns:xlink="http://www.w3.org/1999/xlink" x="0px" y="0px"
	 width="197.788px" height="40.029px" viewBox="0 0 197.788 40.029" enable-background="new 0 0 197.788 40.029"
	 xml:space="preserve">
<g fill="#fff">
	<path d="M160.589,15.662c0-3.484,0.977-4.841,3.484-4.841c2.509,0,3.485,1.357,3.485,4.841v12.873c0,3.408-0.944,4.676-3.485,4.676
		c-2.54,0-3.484-1.268-3.484-4.676v-2.139l-4.797,4.794l0.058,0.244c0.945,4.14,3.635,6.153,8.224,6.153
		c5.803,0,8.625-3.307,8.625-10.113V16.723c0-6.821-2.902-10.281-8.625-10.281c-5.803,0-8.625,3.362-8.625,10.281v11.525
		l5.141-5.139V15.662z"/>
	<path d="M180.191,23.527h2.725c5.071,0,7.864-2.795,7.864-7.865c0-5.919-2.646-8.921-7.864-8.921h-7.863v30.55h5.139V23.527z
		 M180.191,10.821h0.608c3.892,0,4.841,0.951,4.841,4.842c0,2.935-1.086,3.783-4.841,3.783h-0.608V10.821z"/>
	<path d="M141.313,23.527h6.508v13.764h5.139V6.741h-5.139v12.706h-6.508V6.741h-5.139v30.55h5.139V23.527z"/>
	<path d="M195.127,8.123l0.679,2.751h0.511l0.68-2.751v2.751h0.792V6.75h-1.199l-0.531,2.246l-0.515-2.246h-1.199v4.125h0.783V8.123
		z"/>
	<path d="M126.502,33.211c-2.171,0-3.424-1.745-3.733-5.188h-5.212l0.023,0.371c0.361,5.93,3.528,9.193,8.922,9.193
		c4.852,0,7.864-2.828,7.864-7.383c0-3.304-1.482-6.178-4.405-8.542l-5.294-4.236c-0.728-0.581-1.948-1.854-1.948-3.832
		c0-1.79,0.968-2.774,2.725-2.774c2.104,0,3.346,1.373,3.704,4.076h5.244l-0.027-0.329c-0.414-5.239-3.584-8.126-8.921-8.126
		c-4.787,0-7.88,2.983-7.88,7.6c0,2.991,1.196,5.575,3.362,7.269l5.293,4.234c1.41,1.136,3.008,2.427,3.008,4.942
		C129.227,32.345,128.359,33.211,126.502,33.211z"/>
	<path d="M192.231,10.875h0.842V7.513h0.814V6.75h-2.464v0.763h0.808V10.875z"/>
	<path d="M56.591,37.588c5.613,0,8.343-3.361,8.343-10.277v-1.512h-5.139v1.512c0,3.541-0.545,5.9-3.204,5.9
		c-2.356,0-3.452-1.875-3.452-5.9V16.723c0-3.915,0.534-5.902,3.452-5.902c2.888,0,3.204,1.889,3.204,5.902v0.451h5.139v-0.451
		c0-7.014-2.65-10.281-8.343-10.281c-7.7,0-8.592,6.472-8.592,11.339v8.454C47.999,31.107,48.891,37.588,56.591,37.588z"/>
	<path d="M75.531,37.588c5.801,0,8.624-3.361,8.624-10.277V15.782l-5.14,5.139v7.446c0,3.488-0.978,4.844-3.484,4.844
		c-2.508,0-3.487-1.355-3.487-4.844v-12.87c0-3.41,0.945-4.676,3.487-4.676c2.54,0,3.484,1.266,3.484,4.676v2.136l4.793-4.793
		l-0.057-0.244c-0.944-4.141-3.631-6.154-8.221-6.154c-5.805,0-8.627,3.309-8.627,10.115v10.754
		C66.904,34.13,69.807,37.588,75.531,37.588z"/>
	<path d="M116.911,33.211H109.5v-9.684h5.294v-4.081H109.5v-8.625h7.411v-4.08H104.36v30.55h12.551V33.211z"/>
	<path d="M91.55,10.821h0.606c3.396,0,4.843,1.289,4.843,4.313c0,2.673-1.157,3.987-3.756,4.256l-0.547,0.057l5.513,17.845h5.156
		l-4.827-15.015c2.326-1.052,3.6-3.567,3.6-7.143c0-5.727-3.173-8.393-9.981-8.393h-5.745v30.55h5.139V10.821z"/>
	<path d="M23.499,23.239c0,4.201-3.405,7.607-7.606,7.607v9.183c8.778,0,15.895-7.112,15.895-15.892V0l-8.289,8.288
		V23.239z"/>
	<path d="M8.285,16.794c0-4.201,3.406-7.608,7.607-7.608V0C7.114,0,0,7.116,0,15.895v24.135l8.285-8.284V16.794z"/>
</g>
</svg>
