<?xml version="1.0" encoding="utf-8"?>
<!-- Generator: Adobe Illustrator 16.0.0, SVG Export Plug-In . SVG Version: 6.00 Build 0)  -->
<!DOCTYPE svg PUBLIC "-//W3C//DTD SVG 1.1//EN" "http://www.w3.org/Graphics/SVG/1.1/DTD/svg11.dtd">
<svg version="1.1" id="Layer_1" xmlns="http://www.w3.org/2000/svg" xmlns:xlink="http://www.w3.org/1999/xlink" x="0px" y="0px"
	 width="61.236px" height="36.998px" viewBox="0 0 61.236 36.998" enable-background="new 0 0 61.236 36.998" xml:space="preserve">
<path fill="#FFFFFF" d="M15.9,6.067c0-2.808-1.561-4.116-4.908-4.116H8.196v15.096h2.425v-6.862h1.312l2.129,6.862h2.425L14.09,9.59
	C15.259,9.093,15.9,7.85,15.9,6.067 M10.992,8.286h-0.371V3.85h0.371c1.717,0,2.483,0.684,2.483,2.218S12.709,8.286,10.992,8.286"/>
<path fill="#FFFFFF" d="M23.095,3.85V1.951h-6.12v15.096h6.12v-1.897H19.4v-4.965h2.639V8.286H19.4V3.85H23.095z"/>
<path fill="#FFFFFF" d="M29.736,3.85V1.951h-6.12v15.096h6.12v-1.897h-3.694v-4.965h2.639V8.286h-2.639V3.85H29.736z"/>
<path fill="#FFFFFF" d="M3.926,17.047v-6.862h2.639V8.286H3.926V3.85H7.62V1.951H1.5v15.096H3.926z"/>
<path fill="#FFFFFF" d="M3.86,23.349c1.19,0,1.848,0.839,1.955,2.493l0.012,0.187l2.423-0.605l-0.011-0.131
	c-0.203-2.573-1.759-3.989-4.379-3.989c-2.345,0-3.86,1.46-3.86,3.72c0,1.471,0.588,2.739,1.651,3.57l2.639,2.111
	c0.714,0.576,1.525,1.23,1.525,2.518c0,0.974-0.453,1.427-1.427,1.427c-1.201,0-1.858-1.015-1.955-3.018l-0.01-0.19l-2.423,0.605
	l0.007,0.13c0.178,2.914,1.732,4.52,4.381,4.52c2.376,0,3.852-1.385,3.852-3.614c0-1.625-0.729-3.039-2.171-4.205l-2.639-2.111
	c-0.373-0.297-0.997-0.949-0.997-1.965C2.434,23.863,2.94,23.349,3.86,23.349"/>
<path fill="#FFFFFF" d="M14.937,27.786h-3.383v-6.335H9.13v15.095h2.424v-6.862h3.383v6.862h2.424V21.451h-2.424V27.786z"/>
<path fill="#FFFFFF" d="M18.92,36.546h2.425V21.451H18.92V36.546z"/>
<path fill="#FFFFFF" d="M26.805,21.451h-3.853v15.095h2.425v-6.862h1.428c2.483,0,3.852-1.369,3.852-3.853
	C30.656,22.925,29.36,21.451,26.805,21.451 M25.748,27.786h-0.371v-4.438h0.371c1.995,0,2.483,0.487,2.483,2.482
	C28.231,27.504,27.465,27.786,25.748,27.786"/>
<path fill="#FFFFFF" d="M35.052,21.451h-3.853v15.095h2.426v-6.862h1.427c2.483,0,3.852-1.369,3.852-3.853
	C38.903,22.925,37.607,21.451,35.052,21.451 M33.995,27.786h-0.37v-4.438h0.37c1.995,0,2.483,0.487,2.483,2.482
	C36.479,27.504,35.713,27.786,33.995,27.786"/>
<path fill="#FFFFFF" d="M39.545,36.546h2.425V21.451h-2.425V36.546z"/>
<path fill="#FFFFFF" d="M48.857,29.942l-3.433-8.491h-1.847v15.095h2.424V27.4l3.515,9.146h1.766V21.451h-2.425V29.942z"/>
<path fill="#FFFFFF" d="M56.7,30.739h2.112v0.371c0,2.513-0.567,3.538-1.956,3.538c-1.719,0-1.955-1.701-1.955-3.538v-4.751
	c0-2.111,0.609-3.011,2.038-3.011c1.624,0,1.749,1.248,1.749,3.011v0.157h2.424v-0.157c0-3.403-1.365-5.057-4.173-5.057
	c-2.961,0-4.463,1.879-4.463,5.585v3.744c0,2.998,0.521,6.063,4.38,6.063c0.926,0,1.645-0.498,2.096-1.442l0.431,1.293h1.854v-7.688
	H56.7V30.739z"/>
</svg>
