<?xml version="1.0" encoding="utf-8"?>
<!-- Generator: Adobe Illustrator 16.0.0, SVG Export Plug-In . SVG Version: 6.00 Build 0)  -->
<!DOCTYPE svg PUBLIC "-//W3C//DTD SVG 1.1//EN" "http://www.w3.org/Graphics/SVG/1.1/DTD/svg11.dtd">
<svg version="1.1" id="Layer_1" xmlns="http://www.w3.org/2000/svg" xmlns:xlink="http://www.w3.org/1999/xlink" x="0px" y="0px"
	 width="52.988px" height="52.988px" viewBox="0 0 52.988 52.988" enable-background="new 0 0 52.988 52.988" xml:space="preserve">
<g>
	<g>
		<path fill="#444444" d="M26.494,52.988C11.885,52.988,0,41.104,0,26.494C0,11.885,11.885,0,26.494,0s26.494,11.885,26.494,26.494
			C52.988,41.104,41.103,52.988,26.494,52.988z M26.494,3C13.54,3,3,13.54,3,26.494c0,12.955,10.54,23.494,23.494,23.494
			s23.494-10.539,23.494-23.494C49.988,13.54,39.449,3,26.494,3z"/>
	</g>
	<g>
		<polygon fill="#444444" points="29.594,39.441 16.646,26.494 29.594,13.547 31.715,15.669 20.889,26.494 31.715,37.32 		"/>
	</g>
</g>
</svg>
