<?xml version="1.0" encoding="utf-8"?>
<!-- Generator: Adobe Illustrator 16.0.0, SVG Export Plug-In . SVG Version: 6.00 Build 0)  -->
<!DOCTYPE svg PUBLIC "-//W3C//DTD SVG 1.1//EN" "http://www.w3.org/Graphics/SVG/1.1/DTD/svg11.dtd">
<svg version="1.1" id="Layer_1" xmlns="http://www.w3.org/2000/svg" xmlns:xlink="http://www.w3.org/1999/xlink" x="0px" y="0px"
	 width="52.988px" height="52.988px" viewBox="0 0 52.988 52.988" enable-background="new 0 0 52.988 52.988" xml:space="preserve">
<g>
	<g>
		<path fill="#444444" d="M0,26.494C0,11.885,11.885,0,26.494,0s26.494,11.885,26.494,26.494c0,14.609-11.885,26.494-26.494,26.494
			S0,41.104,0,26.494z M3,26.494c0,12.955,10.54,23.494,23.494,23.494s23.494-10.539,23.494-23.494C49.988,13.54,39.449,3,26.494,3
			S3,13.54,3,26.494z"/>
	</g>
	<g>
		<polygon fill="#444444" points="23.395,39.441 36.342,26.494 23.395,13.547 21.273,15.669 32.099,26.494 21.273,37.32 		"/>
	</g>
</g>
</svg>
