<?xml version="1.0" encoding="utf-8"?>
<!-- Generator: Adobe Illustrator 16.0.0, SVG Export Plug-In . SVG Version: 6.00 Build 0)  -->
<!DOCTYPE svg PUBLIC "-//W3C//DTD SVG 1.1//EN" "http://www.w3.org/Graphics/SVG/1.1/DTD/svg11.dtd">
<svg version="1.1" id="Layer_1" xmlns="http://www.w3.org/2000/svg" xmlns:xlink="http://www.w3.org/1999/xlink" x="0px" y="0px"
	 width="19.989px" height="19.989px" viewBox="0 0 19.989 19.989" enable-background="new 0 0 19.989 19.989" xml:space="preserve">
<path d="M19.5,17.139l-4.343-4.344c-0.022-0.022-0.05-0.039-0.074-0.061c0.854-1.296,1.354-2.848,1.354-4.516
	C16.437,3.68,12.757,0,8.218,0C3.68,0,0,3.68,0,8.218c0,4.54,3.68,8.219,8.218,8.219c1.669,0,3.221-0.5,4.517-1.354
	c0.021,0.023,0.037,0.051,0.061,0.074l4.343,4.342c0.652,0.652,1.71,0.652,2.362,0S20.152,17.791,19.5,17.139L19.5,17.139z
	 M8.218,13.588c-2.965,0-5.369-2.404-5.369-5.37s2.404-5.37,5.369-5.37c2.966,0,5.37,2.404,5.37,5.37S11.184,13.588,8.218,13.588
	L8.218,13.588z M8.218,13.588"/>
</svg>
