<?xml version="1.0" encoding="utf-8"?>
<!-- Generator: Adobe Illustrator 16.0.0, SVG Export Plug-In . SVG Version: 6.00 Build 0)  -->
<!DOCTYPE svg PUBLIC "-//W3C//DTD SVG 1.1//EN" "http://www.w3.org/Graphics/SVG/1.1/DTD/svg11.dtd">
<svg version="1.1" id="Layer_1" xmlns="http://www.w3.org/2000/svg" xmlns:xlink="http://www.w3.org/1999/xlink" x="0px" y="0px"
	 width="45.331px" height="39.994px" viewBox="0 0 45.331 39.994" enable-background="new 0 0 45.331 39.994" xml:space="preserve">
<g>
	<g>
		<path fill="#444444" d="M11.289,18.639l6.834,6.893l1.475,1.486l-1.475,1.486l-3.687,3.718l12.238,7.176v-18.05l-15.386-9.021
			V18.639z M34.052,4.002l-5.959-3.504L12.166,9.835l5.968,3.503L34.052,4.002z M7.744,18.054v3.568H0v10.793h7.744v3.568
			l4.818-4.859l4.07-4.105L7.744,18.054z M31.248,20.304l-1.721,1.012v18.181l15.497-9.086V12.229L31.248,20.304z M44.013,9.835
			l-6.869-3.973l-15.918,9.337l0.907,0.478l5.96,3.495l5.929-3.471L44.013,9.835z"/>
	</g>
</g>
</svg>
