<?xml version="1.0" encoding="utf-8"?>
<!-- Generator: Adobe Illustrator 16.0.0, SVG Export Plug-In . SVG Version: 6.00 Build 0)  -->
<!DOCTYPE svg PUBLIC "-//W3C//DTD SVG 1.1//EN" "http://www.w3.org/Graphics/SVG/1.1/DTD/svg11.dtd">
<svg version="1.1" id="Layer_1" xmlns="http://www.w3.org/2000/svg" xmlns:xlink="http://www.w3.org/1999/xlink" x="0px" y="0px"
	 width="35.679px" height="34.99px" viewBox="0 0 35.679 34.99" enable-background="new 0 0 35.679 34.99" xml:space="preserve">
<path fill="#444444" d="M35.349,11.644l-0.06-0.212c0,0-0.031-0.06-0.031-0.089L31.473,0.812C31.292,0.33,30.842,0,30.3,0H6.022
	c-0.511,0-0.99,0.33-1.171,0.812L1.096,11.282c-0.031,0.061-0.031,0.12-0.061,0.181l-0.12,0.361c-0.03,0.09-0.061,0.181-0.061,0.3
	c-0.12,0.452-0.18,0.843-0.18,1.266c0,2.285,1.441,4.24,3.485,4.963v15.406c0,0.691,0.54,1.231,1.231,1.231h26.052
	c0.691,0,1.23-0.54,1.23-1.231V18.142c1.774-0.871,3.005-2.677,3.005-4.752c0-0.362-0.06-0.753-0.149-1.145
	C35.499,12.005,35.438,11.824,35.349,11.644L35.349,11.644z M30.18,32.524H6.624v-13.9c0.06,0,0.149-0.03,0.209-0.03
	c1.293-0.211,2.405-0.872,3.217-1.836c0.961,1.174,2.434,1.896,4.057,1.896c1.621,0,3.094-0.752,4.055-1.896
	c0.963,1.174,2.435,1.896,4.057,1.896c1.623,0,3.096-0.752,4.057-1.896c0.691,0.843,1.623,1.444,2.704,1.716
	c0.03,0,0.06,0.029,0.091,0.029c0.12,0.031,0.239,0.061,0.391,0.091c0.06,0,0.149,0.03,0.21,0.03c0.091,0,0.211,0.03,0.301,0.03
	c0.06,0,0.149,0.029,0.209,0.029V32.524z M31.143,16.097"/>
</svg>
