<svg xmlns="http://www.w3.org/2000/svg" xmlns:xlink="http://www.w3.org/1999/xlink" id="Layer_1" x="0px" y="0px" width="25px" height="25px" viewBox="0 0 25 25" xml:space="preserve"> <g> <circle fill-rule="evenodd" clip-rule="evenodd" fill="#FFFFFF" cx="13" cy="13" r="2.703"></circle> <path fill-rule="evenodd" clip-rule="evenodd" fill="#FFFFFF" d="M16.584,6.42H9.415c-1.651,0-2.995,1.344-2.995,2.996v7.168 c0,1.652,1.344,2.996,2.995,2.996h7.169c1.652,0,2.996-1.344,2.996-2.996V9.416C19.58,7.764,18.236,6.42,16.584,6.42z M13,17.123 c-2.273,0-4.123-1.85-4.123-4.123c0-2.272,1.85-4.122,4.123-4.122s4.123,1.85,4.123,4.122C17.123,15.273,15.273,17.123,13,17.123z M18.032,9.451c-0.194,0.193-0.462,0.305-0.736,0.305c-0.273,0-0.543-0.111-0.735-0.305c-0.194-0.194-0.306-0.463-0.306-0.736 c0-0.274,0.111-0.543,0.306-0.736c0.193-0.194,0.462-0.305,0.735-0.305c0.274,0,0.543,0.11,0.736,0.305 c0.193,0.193,0.305,0.462,0.305,0.736C18.337,8.988,18.226,9.257,18.032,9.451z"></path> <path fill-rule="evenodd" clip-rule="evenodd" fill="#FFFFFF" d="M12.5,0C5.597,0,0,5.597,0,12.5S5.597,25,12.5,25 S25,19.403,25,12.5S19.403,0,12.5,0z M21,16.584C21,19.019,19.02,21,16.584,21H9.415C6.98,21,5,19.02,5,16.584V9.416 C5,6.981,6.98,5,9.415,5h7.169C19.02,5,21,6.981,21,9.416V16.584z"></path> </g> </svg>