<svg xmlns="http://www.w3.org/2000/svg" xmlns:xlink="http://www.w3.org/1999/xlink" id="Layer_1" x="0px" y="0px" width="34px" height="34px" viewBox="0 0 25 25" xml:space="preserve"> <path fill-rule="evenodd" clip-rule="evenodd" fill="#2a87e4" d="M12.5,0C5.597,0,0,5.597,0,12.5S5.597,25,12.5,25 S25,19.403,25,12.5S19.403,0,12.5,0z M16.507,12.337C16.339,15.494,13.83,18,10.758,18c-3.194,0-5.781-2.71-5.759-6.044 C5.021,8.647,7.697,5.935,10.872,6c1.489,0.029,2.839,0.649,3.845,1.643c0.161,0.159,0.161,0.427-0.001,0.585L13.684,9.24 c-0.148,0.146-0.377,0.145-0.527,0.002c-0.635-0.6-1.477-0.966-2.398-0.966c-2.018,0-3.649,1.751-3.57,3.871 c0.074,1.978,1.645,3.561,3.544,3.575c1.564,0.012,2.901-1.031,3.396-2.485h-2.812c-0.213,0-0.386-0.18-0.386-0.402v-1.474 c0-0.222,0.173-0.402,0.386-0.402h5.2C16.515,10.959,16.512,12.297,16.507,12.337z M22.661,13.01h-1.382v1.44 c0,0.194-0.151,0.352-0.338,0.352h-1.163c-0.187,0-0.338-0.158-0.338-0.352v-1.44h-1.382c-0.187,0-0.338-0.158-0.338-0.353v-1.212 c0-0.194,0.151-0.352,0.338-0.352h1.382v-1.44c0-0.194,0.151-0.352,0.338-0.352h1.163c0.187,0,0.338,0.158,0.338,0.352v1.44h1.382 c0.187,0,0.338,0.157,0.338,0.352v1.212C22.999,12.852,22.848,13.01,22.661,13.01z"></path> </svg>