<svg xmlns="http://www.w3.org/2000/svg" xmlns:xlink="http://www.w3.org/1999/xlink" id="Layer_1" x="0px" y="0px" width="25px" height="25px" viewBox="0 0 25 25" xml:space="preserve"> <path fill-rule="evenodd" clip-rule="evenodd" fill="#FFFFFF" d="M12.5,0C5.597,0,0,5.597,0,12.5S5.597,25,12.5,25 S25,19.403,25,12.5S19.403,0,12.5,0z M20.971,8.771c-0.381,0.555-0.843,1.05-1.372,1.47c-0.14,0.111-0.22,0.273-0.22,0.446v0.051 c0,1.077-0.215,2.205-0.619,3.261c-0.425,1.109-1.038,2.111-1.822,2.98c-0.841,0.933-1.842,1.665-2.975,2.177 C12.728,19.717,11.359,20,9.897,20c-1.671,0-3.316-0.433-4.759-1.253c-0.104-0.06-0.161-0.18-0.131-0.295 c0.031-0.116,0.136-0.194,0.259-0.194h0.399c1.279,0,2.509-0.365,3.564-1.058c-1.271-0.202-2.335-1.091-2.73-2.297 c-0.042-0.127,0.071-0.252,0.206-0.227c0.192,0.036,0.388,0.054,0.581,0.054c0.024,0,0.049,0,0.073,0 c-1.218-0.544-2.032-1.752-2.015-3.108c0.002-0.134,0.148-0.217,0.268-0.152c0.247,0.134,0.513,0.234,0.787,0.298 c-0.652-0.627-1.028-1.488-1.028-2.402c0-0.596,0.161-1.182,0.467-1.694c0.063-0.106,0.217-0.118,0.296-0.022 c1.561,1.87,3.769,3.021,6.218,3.244c0.004,0,0.008,0,0.012,0c0.036,0,0.071-0.015,0.095-0.042c0.015-0.015,0.037-0.048,0.031-0.094 c-0.047-0.406-0.02-0.824,0.082-1.241c0.271-1.112,1.134-2.013,2.253-2.352C15.186,7.056,15.554,7,15.918,7 C16.76,7,17.57,7.299,18.2,7.841c0.083,0.071,0.188,0.11,0.296,0.11c0.035,0,0.07-0.004,0.105-0.013 c0.592-0.146,1.159-0.375,1.687-0.681c0.143-0.082,0.314,0.051,0.264,0.206c-0.177,0.541-0.491,1.025-0.908,1.413 c0.379-0.088,0.748-0.209,1.104-0.364C20.912,8.441,21.07,8.625,20.971,8.771z"></path> </svg>